<svg width="63" height="74" viewBox="0 0 63 74" fill="none" xmlns="http://www.w3.org/2000/svg">
<g clip-path="url(#clip0_172_1107)">
<g clip-path="url(#clip1_172_1107)">
<path fill-rule="evenodd" clip-rule="evenodd" d="M28.9508 53.0982L20.9894 47.4917L28.9508 41.8852L36.9123 47.4917L28.9508 53.0982ZM12.5596 47.4917L28.9508 35.9489L45.3421 47.4917L28.9508 59.0345L12.5596 47.4917Z" fill="#63F674"/>
<path fill-rule="evenodd" clip-rule="evenodd" d="M28.9499 64.9699L16.7735 56.3953L28.9499 47.8206L41.1263 56.3953L28.9499 64.9699ZM8.34375 56.3953L28.9499 41.8844L49.5561 56.3953L28.9499 70.9062L8.34375 56.3953Z" fill="#FC4C5A"/>
<path fill-rule="evenodd" clip-rule="evenodd" d="M28.9455 41.8881L24.7306 38.9199L28.9455 35.9518L33.1604 38.9199L28.9455 41.8881ZM16.3008 38.9199L28.9455 30.0155L41.5902 38.9199L28.9455 47.8243L16.3008 38.9199Z" fill="#722132"/>
<path d="M12.5596 47.4917L16.7745 50.4598L33.1657 38.9171L28.9508 35.9489L12.5596 47.4917Z" fill="#63F674"/>
</g>
<path d="M38.8789 46.4029C38.5625 45.6483 37.8322 42.9908 39.6503 36.9959C40.2581 34.9917 39.8682 33.3834 39.3051 32.2582C38.8608 31.3706 37.5953 31.4295 37.0536 32.3501C35.1207 35.6356 32.2016 35.3386 32.2016 35.3386L27.001 33.7963C27.001 33.7963 23.9304 34.082 21.8869 30.8573C21.3751 30.0496 20.1267 30.1991 19.6687 31.1248C18.8833 32.7119 18.2959 35.3279 19.5824 39.1009C21.433 44.5279 20.9369 47.3083 20.6529 48.2261C19.046 51.4579 18.1018 54.7486 18.1271 56.4568C18.1853 60.3892 23.4568 61.1068 29.9362 60.4273C36.4158 59.7477 41.6496 57.928 41.5914 53.9956C41.5666 52.3037 40.5475 49.2639 38.8789 46.4029Z" fill="#3D5BFC"/>
<g opacity="0.3">
<path d="M39.1897 52.5051C39.2069 51.5799 38.9742 50.3446 38.5561 49.0063C38.1383 47.6693 37.5252 46.1965 36.7519 44.7737C36.5152 44.124 35.9165 41.601 37.8332 35.6969C38.2571 34.391 38.2991 33.2399 38.1399 32.2617C38.3345 32.0618 38.5729 31.9634 38.7818 31.9552C39.027 31.9455 39.2171 32.0535 39.3166 32.269L39.3167 32.2691C39.7812 33.2744 40.0892 34.7384 39.475 36.6303C37.4849 42.7603 38.0828 45.5242 38.422 46.4153L38.4342 46.4474L38.4506 46.4775C39.2008 47.8527 39.7939 49.2764 40.1946 50.5592C40.5981 51.8506 40.7962 52.9663 40.782 53.7343L41.2635 53.7452L40.782 53.7343C40.7506 55.4355 39.6304 56.7914 37.6071 57.8606C35.5871 58.9282 32.7756 59.6446 29.6271 60.0931C27.2883 60.4262 25.1414 60.5574 23.3781 60.3981C22.8948 60.3544 22.4468 60.2895 22.0357 60.2032C23.6066 60.232 25.3643 60.0879 27.2063 59.8256C30.3941 59.3715 33.3308 58.6361 35.4931 57.4934C37.6521 56.3524 39.1484 54.7398 39.1897 52.5051ZM39.1897 52.5051L38.7082 52.4942L39.1897 52.5051Z" fill="#FC2484" stroke="#FC2484"/>
</g>
<path d="M30.3855 42.8724L28.4882 43.0714C27.7447 43.1494 27.133 42.5998 27.1218 41.8438L26.7794 18.7034C26.7682 17.9475 27.3618 17.2714 28.1053 17.1934L30.0026 16.9944C30.746 16.9164 31.3578 17.4661 31.369 18.222L31.7113 41.3624C31.7225 42.1183 31.1289 42.7944 30.3855 42.8724Z" fill="#FC4C5A"/>
<path opacity="0.3" d="M30.004 16.9908L28.909 17.1057C29.473 17.2117 29.8917 17.6939 29.9009 18.318L30.2434 41.4582C30.2546 42.2142 29.6609 42.8902 28.9175 42.9682L28.115 43.0524C28.2343 43.0749 28.3597 43.0815 28.4895 43.0677L30.3868 42.8687C31.1303 42.7907 31.7239 42.1147 31.7127 41.3587L31.3704 18.2185C31.3592 17.4625 30.7475 16.9129 30.004 16.9908Z" fill="#FC4C5A"/>
<path d="M27.5352 51.8381L31.9609 51.3739C32.4442 51.3232 32.8299 50.8838 32.8227 50.3924L32.8 48.8594C32.7927 48.3679 32.3951 48.0107 31.9118 48.0614L27.4862 48.5256C27.0029 48.5763 26.6171 49.0157 26.6244 49.5071L26.6471 51.0401C26.6545 51.5315 27.0521 51.8887 27.5352 51.8381Z" fill="#722132"/>
<path d="M32.0721 9.03915L29.9462 9.26214C29.688 9.28922 29.4757 9.09848 29.4718 8.83596L29.469 8.64444C29.4651 8.38192 29.6711 8.1473 29.9293 8.12022L32.0552 7.89722C32.3134 7.87015 32.5257 8.06089 32.5296 8.32341L32.5324 8.51493C32.5362 8.77735 32.3301 9.01209 32.0721 9.03915Z" fill="#FC2484"/>
<path d="M32.4774 11.0573L30.3515 11.2803C30.0933 11.3074 29.881 11.1167 29.8771 10.8541L29.8743 10.6626C29.8704 10.4001 30.0764 10.1655 30.3346 10.1384L32.4605 9.91542C32.7187 9.88834 32.931 10.0791 32.9349 10.3416L32.9377 10.5331C32.9416 10.7956 32.7355 11.0304 32.4774 11.0573Z" fill="#FC2484"/>
<path d="M32.8807 13.0731L30.7548 13.2961C30.4966 13.3232 30.2843 13.1324 30.2804 12.8699L30.2776 12.6784C30.2737 12.4159 30.4797 12.1812 30.7379 12.1542L32.8638 11.9312C33.122 11.9041 33.3343 12.0948 33.3382 12.3574L33.341 12.5489C33.3448 12.8113 33.1388 13.0459 32.8807 13.0731Z" fill="#FC2484"/>
<path d="M33.286 15.0925L31.1601 15.3155C30.9019 15.3426 30.6896 15.1518 30.6857 14.8893L30.6829 14.6978C30.679 14.4353 30.885 14.2006 31.1432 14.1736L33.2691 13.9506C33.5273 13.9235 33.7396 14.1142 33.7435 14.3768L33.7463 14.5683C33.7502 14.8308 33.5442 15.0654 33.286 15.0925Z" fill="#FC2484"/>
<path d="M33.6913 17.1106L31.5653 17.3336C31.3072 17.3606 31.0949 17.1699 31.091 16.9074L31.0881 16.7159C31.0843 16.4533 31.2903 16.2187 31.5484 16.1916L33.6744 15.9686C33.9325 15.9416 34.1448 16.1323 34.1487 16.3948L34.1516 16.5863C34.1554 16.8489 33.9493 17.0836 33.6913 17.1106Z" fill="#FC2484"/>
<path d="M33.1056 18.7279L30.8432 7.68319C30.4924 5.97078 28.8645 4.95577 27.1353 5.37115C25.0986 5.86026 23.8349 8.08649 24.5017 10.0099L25.8023 13.761L24.0923 17.8453C23.9644 18.1506 23.9956 18.4882 24.1745 18.737L25.2527 20.2363C25.425 20.4758 25.7111 20.6006 26.0149 20.5688L32.2293 19.917C32.7985 19.8573 33.2197 19.2858 33.1056 18.7279Z" fill="#1C3E74"/>
<path opacity="0.3" d="M27.7382 5.28802C27.9865 5.62889 28.1695 6.03 28.262 6.48132L30.5244 17.5261C30.6386 18.0838 30.2173 18.6554 29.6479 18.7152L24.5418 19.2507L25.2531 20.24C25.4255 20.4794 25.7115 20.6042 26.0154 20.5725L32.2297 19.9206C32.7991 19.8609 33.2203 19.2894 33.1061 18.7315L30.8437 7.6867C30.5341 6.17525 29.2294 5.20879 27.7382 5.28802Z" fill="#1C3E74"/>
</g>
<defs>
<clipPath id="clip0_172_1107">
<rect width="62" height="74" fill="white" transform="translate(0.5)"/>
</clipPath>
<clipPath id="clip1_172_1107">
<rect width="41.9412" height="40.8947" fill="white" transform="matrix(1 0 0 -1 7.97852 70.9054)"/>
</clipPath>
</defs>
</svg>
