<svg width="63" height="294" viewBox="0 0 63 294" fill="none" xmlns="http://www.w3.org/2000/svg">
<g clip-path="url(#clip0_11617_1456)">
<g clip-path="url(#clip1_11617_1456)">
<path fill-rule="evenodd" clip-rule="evenodd" d="M28.9508 273.098L20.9894 267.492L28.9508 261.885L36.9123 267.492L28.9508 273.098ZM12.5596 267.492L28.9508 255.949L45.3421 267.492L28.9508 279.034L12.5596 267.492Z" fill="#969696"/>
<path fill-rule="evenodd" clip-rule="evenodd" d="M28.9499 284.97L16.7735 276.395L28.9499 267.821L41.1263 276.395L28.9499 284.97ZM8.34375 276.395L28.9499 261.884L49.5561 276.395L28.9499 290.906L8.34375 276.395Z" fill="#525252"/>
<path fill-rule="evenodd" clip-rule="evenodd" d="M28.9455 261.888L24.7306 258.92L28.9455 255.952L33.1604 258.92L28.9455 261.888ZM16.3008 258.92L28.9455 250.015L41.5902 258.92L28.9455 267.824L16.3008 258.92Z" fill="#DADADA"/>
<path d="M12.5596 267.492L16.7745 270.46L33.1657 258.917L28.9508 255.949L12.5596 267.492Z" fill="#969696"/>
</g>
<path d="M38.8789 266.403C38.5625 265.648 37.8322 262.991 39.6503 256.996C40.2581 254.992 39.8682 253.383 39.3051 252.258C38.8608 251.37 37.5953 251.429 37.0536 252.35C35.1207 255.635 32.2016 255.339 32.2016 255.339L27.001 253.796C27.001 253.796 23.9304 254.082 21.8869 250.857C21.3751 250.05 20.1267 250.199 19.6687 251.125C18.8833 252.712 18.2959 255.328 19.5824 259.101C21.433 264.528 20.9369 267.308 20.6529 268.226C19.046 271.458 18.1018 274.748 18.1271 276.457C18.1853 280.389 23.4568 281.107 29.9362 280.427C36.4158 279.748 41.6496 277.928 41.5914 273.995C41.5666 272.304 40.5475 269.264 38.8789 266.403Z" fill="#3D5BFC"/>
<g opacity="0.3">
<path d="M39.1897 272.505C39.2069 271.58 38.9742 270.345 38.5561 269.006C38.1383 267.669 37.5252 266.196 36.7519 264.774C36.5152 264.124 35.9165 261.601 37.8332 255.697C38.2571 254.391 38.2991 253.24 38.1399 252.262C38.3345 252.062 38.5729 251.963 38.7818 251.955C39.027 251.945 39.2171 252.053 39.3166 252.269L39.3167 252.269C39.7812 253.274 40.0892 254.738 39.475 256.63C37.4849 262.76 38.0828 265.524 38.422 266.415L38.4342 266.447L38.4506 266.477C39.2008 267.853 39.7939 269.276 40.1946 270.559C40.5981 271.85 40.7962 272.966 40.782 273.734L41.2635 273.745L40.782 273.734C40.7506 275.435 39.6304 276.791 37.6071 277.861C35.5871 278.928 32.7756 279.644 29.6271 280.093C27.2883 280.426 25.1414 280.557 23.3781 280.398C22.8948 280.354 22.4468 280.289 22.0357 280.203C23.6066 280.232 25.3643 280.088 27.2063 279.825C30.3941 279.371 33.3308 278.636 35.4931 277.493C37.6521 276.352 39.1484 274.74 39.1897 272.505ZM39.1897 272.505L38.7082 272.494L39.1897 272.505Z" fill="#FC2484" stroke="#FC2484"/>
</g>
<path d="M30.3855 262.872L28.4882 263.071C27.7447 263.149 27.133 262.6 27.1218 261.844L26.7794 238.703C26.7682 237.947 27.3618 237.271 28.1053 237.193L30.0026 236.994C30.746 236.916 31.3578 237.466 31.369 238.222L31.7113 261.362C31.7225 262.118 31.1289 262.794 30.3855 262.872Z" fill="#FC4C5A"/>
<path opacity="0.3" d="M30.004 236.991L28.909 237.106C29.473 237.212 29.8917 237.694 29.9009 238.318L30.2434 261.458C30.2546 262.214 29.6609 262.89 28.9175 262.968L28.115 263.052C28.2343 263.075 28.3597 263.081 28.4895 263.068L30.3868 262.869C31.1303 262.791 31.7239 262.115 31.7127 261.359L31.3704 238.218C31.3592 237.462 30.7475 236.913 30.004 236.991Z" fill="#FC4C5A"/>
<path d="M27.5352 271.838L31.9609 271.374C32.4442 271.323 32.8299 270.884 32.8227 270.392L32.8 268.859C32.7927 268.368 32.3951 268.011 31.9118 268.061L27.4862 268.526C27.0029 268.576 26.6171 269.016 26.6244 269.507L26.6471 271.04C26.6545 271.531 27.0521 271.889 27.5352 271.838Z" fill="#722132"/>
<path d="M32.0721 229.039L29.9462 229.262C29.688 229.289 29.4757 229.098 29.4718 228.836L29.469 228.644C29.4651 228.382 29.6711 228.147 29.9293 228.12L32.0552 227.897C32.3134 227.87 32.5257 228.061 32.5296 228.323L32.5324 228.515C32.5362 228.777 32.3301 229.012 32.0721 229.039Z" fill="#FC2484"/>
<path d="M32.4774 231.057L30.3515 231.28C30.0933 231.307 29.881 231.117 29.8771 230.854L29.8743 230.663C29.8704 230.4 30.0764 230.165 30.3346 230.138L32.4605 229.915C32.7187 229.888 32.931 230.079 32.9349 230.342L32.9377 230.533C32.9416 230.796 32.7355 231.03 32.4774 231.057Z" fill="#FC2484"/>
<path d="M32.8807 233.073L30.7548 233.296C30.4966 233.323 30.2843 233.132 30.2804 232.87L30.2776 232.678C30.2737 232.416 30.4797 232.181 30.7379 232.154L32.8638 231.931C33.122 231.904 33.3343 232.095 33.3382 232.357L33.341 232.549C33.3448 232.811 33.1388 233.046 32.8807 233.073Z" fill="#FC2484"/>
<path d="M33.286 235.092L31.1601 235.315C30.9019 235.343 30.6896 235.152 30.6857 234.889L30.6829 234.698C30.679 234.435 30.885 234.201 31.1432 234.174L33.2691 233.951C33.5273 233.923 33.7396 234.114 33.7435 234.377L33.7463 234.568C33.7502 234.831 33.5442 235.065 33.286 235.092Z" fill="#FC2484"/>
<path d="M33.6913 237.11L31.5653 237.333C31.3072 237.361 31.0949 237.17 31.091 236.907L31.0881 236.716C31.0843 236.453 31.2903 236.219 31.5484 236.192L33.6744 235.969C33.9325 235.941 34.1448 236.132 34.1487 236.395L34.1516 236.586C34.1554 236.849 33.9493 237.083 33.6913 237.11Z" fill="#FC2484"/>
<path d="M33.1056 238.728L30.8432 227.683C30.4924 225.971 28.8645 224.956 27.1353 225.371C25.0986 225.86 23.8349 228.086 24.5017 230.01L25.8023 233.761L24.0923 237.845C23.9644 238.151 23.9956 238.488 24.1745 238.737L25.2527 240.236C25.425 240.476 25.7111 240.601 26.0149 240.569L32.2293 239.917C32.7985 239.857 33.2197 239.286 33.1056 238.728Z" fill="#1C3E74"/>
<path opacity="0.3" d="M27.7382 225.288C27.9865 225.629 28.1695 226.03 28.262 226.481L30.5244 237.526C30.6386 238.084 30.2173 238.655 29.6479 238.715L24.5418 239.251L25.2531 240.24C25.4255 240.479 25.7115 240.604 26.0154 240.572L32.2297 239.921C32.7991 239.861 33.2203 239.289 33.1061 238.731L30.8437 227.687C30.5341 226.175 29.2294 225.209 27.7382 225.288Z" fill="#1C3E74"/>
</g>
<defs>
<clipPath id="clip0_11617_1456">
<rect width="62" height="74" fill="white" transform="translate(0.5 220)"/>
</clipPath>
<clipPath id="clip1_11617_1456">
<rect width="41.9412" height="40.8947" fill="white" transform="matrix(1 0 0 -1 7.97852 290.905)"/>
</clipPath>
</defs>
</svg>
